<svg xmlns="http://www.w3.org/2000/svg" xmlns:xlink="http://www.w3.org/1999/xlink" viewBox="0 0 60 75" version="1.1" x="0px" y="0px"><title>71 -Sketch- (Outline)</title><desc>Created with Sketch.</desc><g stroke="none" stroke-width="1" fill="none" fill-rule="evenodd"><g transform="translate(-120.000000, -1180.000000)" fill="#000000"><g transform="translate(120.000000, 1180.000000)"><path d="M16.419,20 L43.674,20 L40.246,8 L20.705,8 L16.419,20 Z M45,22 L15,22 C14.675,22 14.37,21.842 14.183,21.576 C13.995,21.311 13.949,20.97 14.058,20.664 L19.058,6.664 C19.2,6.266 19.577,6 20,6 L41,6 C41.446,6 41.839,6.296 41.961,6.726 L45.961,20.726 C46.048,21.027 45.987,21.352 45.798,21.603 C45.609,21.853 45.314,22 45,22 L45,22 Z"/><path d="M42.2095,7.5928 L45.7045,19.8258 L57.4935,17.2998 L50.5395,4.2618 L42.2095,7.5928 Z M44.9995,21.9998 C44.5615,21.9998 44.1635,21.7108 44.0385,21.2748 L40.0385,7.2748 C39.8975,6.7808 40.1525,6.2618 40.6285,6.0718 L50.6285,2.0718 C51.1055,1.8848 51.6425,2.0788 51.8825,2.5298 L59.8825,17.5298 C60.0305,17.8068 60.0395,18.1368 59.9065,18.4208 C59.7745,18.7058 59.5165,18.9118 59.2095,18.9778 L45.2095,21.9778 C45.1395,21.9928 45.0685,21.9998 44.9995,21.9998 L44.9995,21.9998 Z"/><path d="M2.5064,17.2998 L14.3534,19.8388 L18.7234,7.5998 L9.4744,4.2368 L2.5064,17.2998 Z M15.0004,21.9998 C14.9314,21.9998 14.8604,21.9928 14.7904,21.9778 L0.7904,18.9778 C0.4834,18.9118 0.2254,18.7058 0.0934,18.4208 C-0.0386,18.1368 -0.0306,17.8068 0.1174,17.5288 L8.1174,2.5288 C8.3534,2.0898 8.8754,1.8918 9.3414,2.0608 L20.3414,6.0608 C20.8594,6.2478 21.1274,6.8188 20.9424,7.3358 L15.9424,21.3358 C15.7974,21.7408 15.4154,21.9998 15.0004,21.9998 L15.0004,21.9998 Z"/><path d="M51.001,4 C50.936,4 50.87,3.994 50.804,3.98 L40.901,2 L20.09,2 L9.179,3.983 C8.639,4.089 8.115,3.723 8.016,3.179 C7.918,2.636 8.278,2.115 8.821,2.017 L19.821,0.017 C19.88,0.006 19.94,0 20,0 L41,0 C41.066,0 41.131,0.007 41.196,0.02 L51.196,2.02 C51.738,2.128 52.089,2.654 51.98,3.196 C51.886,3.672 51.468,4 51.001,4"/><path d="M2.5064,17.2998 L14.3534,19.8388 L18.7234,7.5998 L9.4744,4.2368 L2.5064,17.2998 Z M15.0004,21.9998 C14.9314,21.9998 14.8604,21.9928 14.7904,21.9778 L0.7904,18.9778 C0.4834,18.9118 0.2254,18.7058 0.0934,18.4208 C-0.0386,18.1368 -0.0306,17.8068 0.1174,17.5288 L8.1174,2.5288 C8.3534,2.0898 8.8754,1.8918 9.3414,2.0608 L20.3414,6.0608 C20.8594,6.2478 21.1274,6.8188 20.9424,7.3358 L15.9424,21.3358 C15.7974,21.7408 15.4154,21.9998 15.0004,21.9998 L15.0004,21.9998 Z"/><path d="M30,60 C29.675,60 29.371,59.843 29.184,59.577 L0.184,18.577 C-0.135,18.127 -0.028,17.503 0.422,17.184 C0.873,16.865 1.498,16.973 1.816,17.423 L30,57.269 L58.184,17.423 C58.502,16.972 59.126,16.865 59.578,17.184 C60.028,17.503 60.135,18.127 59.816,18.577 L30.816,59.577 C30.629,59.843 30.325,60 30,60"/><path d="M30.0005,60 C29.6015,60 29.2255,59.761 29.0695,59.367 L14.0695,21.367 C13.8675,20.854 14.1195,20.272 14.6325,20.07 C15.1495,19.867 15.7275,20.119 15.9305,20.633 L30.9305,58.633 C31.1325,59.146 30.8805,59.728 30.3675,59.93 C30.2465,59.978 30.1225,60 30.0005,60"/><path d="M29.9996,60 C29.8776,60 29.7536,59.978 29.6326,59.93 C29.1196,59.728 28.8676,59.146 29.0696,58.633 L44.0696,20.633 C44.2726,20.119 44.8526,19.867 45.3676,20.07 C45.8806,20.272 46.1326,20.854 45.9306,21.367 L30.9306,59.367 C30.7746,59.761 30.3986,60 29.9996,60"/></g></g></g><text x="0" y="75" fill="#000000" font-size="5px" font-weight="bold" font-family="'Helvetica Neue', Helvetica, Arial-Unicode, Arial, Sans-serif">Created by Ben Davis</text><text x="0" y="80" fill="#000000" font-size="5px" font-weight="bold" font-family="'Helvetica Neue', Helvetica, Arial-Unicode, Arial, Sans-serif">from the Noun Project</text></svg>